<mxfile host="65bd71144e">
    <diagram id="mzJsa9RWwL21wpUvKsJk" name="Seite-1">
        <mxGraphModel dx="1287" dy="737" grid="1" gridSize="10" guides="1" tooltips="1" connect="1" arrows="1" fold="1" page="1" pageScale="1" pageWidth="827" pageHeight="1169" math="0" shadow="0">
            <root>
                <mxCell id="0"/>
                <mxCell id="1" parent="0"/>
                <mxCell id="f1mH7IWBsVKgYB9QTfj4-1" value="Administrator&lt;br&gt;" style="shape=umlActor;verticalLabelPosition=bottom;verticalAlign=top;html=1;outlineConnect=0;" parent="1" vertex="1">
                    <mxGeometry x="240" y="120" width="30" height="60" as="geometry"/>
                </mxCell>
                <mxCell id="f1mH7IWBsVKgYB9QTfj4-4" value="" style="endArrow=none;dashed=1;html=1;dashPattern=1 3;strokeWidth=2;rounded=0;strokeColor=default;" parent="1" edge="1">
                    <mxGeometry width="50" height="50" relative="1" as="geometry">
                        <mxPoint x="300" y="160" as="sourcePoint"/>
                        <mxPoint x="450" y="160" as="targetPoint"/>
                    </mxGeometry>
                </mxCell>
                <mxCell id="f1mH7IWBsVKgYB9QTfj4-5" value="&lt;font style=&quot;font-size: 20px;&quot;&gt;System&lt;/font&gt;" style="rounded=1;whiteSpace=wrap;html=1;" parent="1" vertex="1">
                    <mxGeometry x="460" y="120" width="180" height="90" as="geometry"/>
                </mxCell>
                <mxCell id="f1mH7IWBsVKgYB9QTfj4-6" value="" style="rounded=0;whiteSpace=wrap;html=1;fontSize=20;fillColor=none;" parent="1" vertex="1">
                    <mxGeometry x="190" y="90" width="480" height="150" as="geometry"/>
                </mxCell>
                <mxCell id="f1mH7IWBsVKgYB9QTfj4-7" value="Kontextabgrenzung&lt;br&gt;" style="text;html=1;align=center;verticalAlign=middle;resizable=0;points=[];autosize=1;strokeColor=none;fillColor=none;fontSize=20;rotation=-90;" parent="1" vertex="1">
                    <mxGeometry x="20" y="140" width="200" height="40" as="geometry"/>
                </mxCell>
                <mxCell id="f1mH7IWBsVKgYB9QTfj4-8" value="" style="shape=link;html=1;rounded=0;strokeColor=default;fontSize=20;strokeWidth=4;" parent="1" edge="1">
                    <mxGeometry width="100" relative="1" as="geometry">
                        <mxPoint x="20" y="290" as="sourcePoint"/>
                        <mxPoint x="810" y="290" as="targetPoint"/>
                    </mxGeometry>
                </mxCell>
                <mxCell id="f1mH7IWBsVKgYB9QTfj4-9" value="" style="shape=link;html=1;rounded=0;strokeColor=default;fontSize=20;" parent="1" edge="1">
                    <mxGeometry width="100" relative="1" as="geometry">
                        <mxPoint x="360" y="290" as="sourcePoint"/>
                        <mxPoint x="460" y="290" as="targetPoint"/>
                    </mxGeometry>
                </mxCell>
                <mxCell id="f1mH7IWBsVKgYB9QTfj4-10" value="Administrator&lt;br&gt;" style="shape=umlActor;verticalLabelPosition=bottom;verticalAlign=top;html=1;outlineConnect=0;" parent="1" vertex="1">
                    <mxGeometry x="110" y="470" width="30" height="60" as="geometry"/>
                </mxCell>
                <mxCell id="f1mH7IWBsVKgYB9QTfj4-11" value="" style="endArrow=none;dashed=1;html=1;dashPattern=1 3;strokeWidth=2;rounded=0;strokeColor=default;" parent="1" edge="1">
                    <mxGeometry width="50" height="50" relative="1" as="geometry">
                        <mxPoint x="160" y="500" as="sourcePoint"/>
                        <mxPoint x="330" y="480" as="targetPoint"/>
                    </mxGeometry>
                </mxCell>
                <mxCell id="f1mH7IWBsVKgYB9QTfj4-12" value="" style="rounded=1;whiteSpace=wrap;html=1;" parent="1" vertex="1">
                    <mxGeometry x="180" y="360" width="590" height="290" as="geometry"/>
                </mxCell>
                <mxCell id="f1mH7IWBsVKgYB9QTfj4-18" value="&amp;lt;&amp;lt;subsystem&amp;gt;&amp;gt;&lt;br&gt;Model" style="rounded=1;whiteSpace=wrap;html=1;fontSize=20;fillColor=none;" parent="1" vertex="1">
                    <mxGeometry x="390" y="370" width="180" height="80" as="geometry"/>
                </mxCell>
                <mxCell id="f1mH7IWBsVKgYB9QTfj4-19" value="&amp;lt;&amp;lt;subsystem&amp;gt;&amp;gt;&lt;br&gt;Controller" style="rounded=1;whiteSpace=wrap;html=1;fontSize=20;fillColor=none;" parent="1" vertex="1">
                    <mxGeometry x="570" y="550" width="180" height="80" as="geometry"/>
                </mxCell>
                <mxCell id="f1mH7IWBsVKgYB9QTfj4-20" value="&amp;lt;&amp;lt;subsystem&amp;gt;&amp;gt;&lt;br&gt;View" style="rounded=1;whiteSpace=wrap;html=1;fontSize=20;fillColor=none;" parent="1" vertex="1">
                    <mxGeometry x="210" y="550" width="180" height="80" as="geometry"/>
                </mxCell>
                <mxCell id="f1mH7IWBsVKgYB9QTfj4-25" value="" style="endArrow=none;dashed=1;html=1;dashPattern=1 3;strokeWidth=2;rounded=0;strokeColor=default;fontSize=20;entryX=0.604;entryY=0.667;entryDx=0;entryDy=0;entryPerimeter=0;exitX=0;exitY=0;exitDx=0;exitDy=0;" parent="1" source="f1mH7IWBsVKgYB9QTfj4-12" target="f1mH7IWBsVKgYB9QTfj4-6" edge="1">
                    <mxGeometry width="50" height="50" relative="1" as="geometry">
                        <mxPoint x="390" y="450" as="sourcePoint"/>
                        <mxPoint x="440" y="400" as="targetPoint"/>
                    </mxGeometry>
                </mxCell>
                <mxCell id="f1mH7IWBsVKgYB9QTfj4-26" value="" style="endArrow=none;dashed=1;html=1;dashPattern=1 3;strokeWidth=2;rounded=0;strokeColor=default;fontSize=20;entryX=1;entryY=0;entryDx=0;entryDy=0;exitX=0.854;exitY=0.6;exitDx=0;exitDy=0;exitPerimeter=0;" parent="1" source="f1mH7IWBsVKgYB9QTfj4-6" target="f1mH7IWBsVKgYB9QTfj4-12" edge="1">
                    <mxGeometry width="50" height="50" relative="1" as="geometry">
                        <mxPoint x="790" y="330" as="sourcePoint"/>
                        <mxPoint x="489.9200000000001" y="200.04999999999995" as="targetPoint"/>
                    </mxGeometry>
                </mxCell>
                <mxCell id="f1mH7IWBsVKgYB9QTfj4-27" value="" style="endArrow=classic;html=1;rounded=0;dashed=1;strokeColor=default;strokeWidth=4;fontSize=20;entryX=1;entryY=1;entryDx=0;entryDy=0;exitX=0.5;exitY=0;exitDx=0;exitDy=0;" parent="1" source="f1mH7IWBsVKgYB9QTfj4-19" target="f1mH7IWBsVKgYB9QTfj4-18" edge="1">
                    <mxGeometry width="50" height="50" relative="1" as="geometry">
                        <mxPoint x="390" y="460" as="sourcePoint"/>
                        <mxPoint x="440" y="410" as="targetPoint"/>
                    </mxGeometry>
                </mxCell>
                <mxCell id="f1mH7IWBsVKgYB9QTfj4-28" value="" style="endArrow=classic;html=1;rounded=0;dashed=1;strokeColor=default;strokeWidth=4;fontSize=20;entryX=0.5;entryY=0;entryDx=0;entryDy=0;exitX=0;exitY=1;exitDx=0;exitDy=0;" parent="1" source="f1mH7IWBsVKgYB9QTfj4-18" target="f1mH7IWBsVKgYB9QTfj4-20" edge="1">
                    <mxGeometry width="50" height="50" relative="1" as="geometry">
                        <mxPoint x="390" y="460" as="sourcePoint"/>
                        <mxPoint x="440" y="410" as="targetPoint"/>
                    </mxGeometry>
                </mxCell>
                <mxCell id="f1mH7IWBsVKgYB9QTfj4-29" value="Ebene 1" style="text;html=1;align=center;verticalAlign=middle;resizable=0;points=[];autosize=1;strokeColor=none;fillColor=none;fontSize=20;rotation=-90;" parent="1" vertex="1">
                    <mxGeometry y="490" width="100" height="40" as="geometry"/>
                </mxCell>
            </root>
        </mxGraphModel>
    </diagram>
</mxfile>